<svg width="742.1px" height="171.8px" xmlns="http://www.w3.org/2000/svg" viewBox="-121.0374755859375 -10.904998779296875 742.074951171875 171.80999755859375" style="background: rgb(29, 14, 11)" preserveAspectRatio="xMidYMid"><defs><linearGradient id="editing-rainbow-gradient" x1="0" x2="1" y1="0.5" y2="0.5" gradientUnits="objectBoundingBox"><stop offset="0" stop-color="#774023"></stop><stop offset="0.2" stop-color="#d88c51"></stop><stop offset="0.3" stop-color="#f3e7c9"></stop><stop offset="0.5" stop-color="#ebebeb"></stop><stop offset="0.7" stop-color="#ac756a"></stop><stop offset="0.8" stop-color="#774023"></stop><stop offset="1" stop-color="#d88c51"></stop></linearGradient><filter id="editing-rainbow" x="-100%" y="-100%" width="300%" height="300%"><feMorphology operator="dilate" radius="1,2" in="SourceGraphic" result="dilate"></feMorphology><feColorMatrix in="dilate" result="color" type="matrix" values="0.7 0 0 0 0  0 0.7 0 0 0  0 0 0.7 0 0  0 0 0 1 0"></feColorMatrix><feOffset dy="2" result="offset"></feOffset><feGaussianBlur stdDeviation="3"></feGaussianBlur><feOffset dy="3"></feOffset><feColorMatrix result="blur" type="matrix" values="0.7 0 0 0 0  0 0.7 0 0 0  0 0 0.7 0 0  0 0 0 1 0"></feColorMatrix><feMerge><feMergeNode in="blur"></feMergeNode><feMergeNode in="offset"></feMergeNode><feMergeNode in="SourceGraphic"></feMergeNode></feMerge></filter></defs><g filter="url(#editing-rainbow)"><g transform="translate(-18,121.3)"><path d="M -86.4 -19.1 L -86.4 -19.1 Q -86.4 -16.3 -85.8 -15 L -85.8 -15 L -85.8 -15 Q -85.3 -13.7 -83.7 -13.2 L -83.7 -13.2 L -83.7 -13.2 Q -82 -12.7 -78.5 -12.7 L -78.5 -12.7 L -78.5 -12.7 Q -78.3 -12.7 -78.3 -12.2 L -78.3 -12.2 L -78.3 -12.2 Q -78.3 -11.6 -78.5 -11.6 L -78.5 -11.6 L -78.5 -11.6 Q -81.3 -11.6 -83 -11.7 L -83 -11.7 L -89.5 -11.8 L -95.8 -11.7 L -95.8 -11.7 Q -97.5 -11.6 -100.4 -11.6 L -100.4 -11.6 L -100.4 -11.6 Q -100.6 -11.6 -100.6 -12.2 L -100.6 -12.2 L -100.6 -12.2 Q -100.6 -12.7 -100.4 -12.7 L -100.4 -12.7 L -100.4 -12.7 Q -96.9 -12.7 -95.2 -13.2 L -95.2 -13.2 L -95.2 -13.2 Q -93.6 -13.7 -93 -15 L -93 -15 L -93 -15 Q -92.4 -16.3 -92.4 -19.1 L -92.4 -19.1 L -92.4 -61.7 L -92.4 -61.7 Q -92.4 -64.4 -93 -65.7 L -93 -65.7 L -93 -65.7 Q -93.6 -67 -95.2 -67.5 L -95.2 -67.5 L -95.2 -67.5 Q -96.9 -68 -100.4 -68 L -100.4 -68 L -100.4 -68 Q -100.6 -68 -100.6 -68.6 L -100.6 -68.6 L -100.6 -68.6 Q -100.6 -69.1 -100.4 -69.1 L -100.4 -69.1 L -95.8 -69 L -95.8 -69 Q -92 -68.9 -89.5 -68.9 L -89.5 -68.9 L -89.5 -68.9 Q -86.7 -68.9 -82.9 -69 L -82.9 -69 L -78.5 -69.1 L -78.5 -69.1 Q -78.3 -69.1 -78.3 -68.6 L -78.3 -68.6 L -78.3 -68.6 Q -78.3 -68 -78.5 -68 L -78.5 -68 L -78.5 -68 Q -82 -68 -83.6 -67.5 L -83.6 -67.5 L -83.6 -67.5 Q -85.2 -66.9 -85.8 -65.6 L -85.8 -65.6 L -85.8 -65.6 Q -86.4 -64.3 -86.4 -61.5 L -86.4 -61.5 L -86.4 -19.1 Z M -5.9 -12.7 L -5.9 -12.7 Q -5.6 -12.7 -5.6 -12.2 L -5.6 -12.2 L -5.6 -12.2 Q -5.6 -11.6 -5.9 -11.6 L -5.9 -11.6 L -5.9 -11.6 Q -8 -11.6 -9.3 -11.7 L -9.3 -11.7 L -14.2 -11.8 L -19.2 -11.7 L -19.2 -11.7 Q -20.5 -11.6 -22.6 -11.6 L -22.6 -11.6 L -22.6 -11.6 Q -22.9 -11.6 -22.9 -12.2 L -22.9 -12.2 L -22.9 -12.2 Q -22.9 -12.7 -22.6 -12.7 L -22.6 -12.7 L -22.6 -12.7 Q -20.1 -12.7 -18.9 -13.2 L -18.9 -13.2 L -18.9 -13.2 Q -17.7 -13.8 -17.3 -15.1 L -17.3 -15.1 L -17.3 -15.1 Q -16.8 -16.4 -16.8 -19.1 L -16.8 -19.1 L -16.8 -33.7 L -16.8 -33.7 Q -16.8 -39.1 -18.7 -41.8 L -18.7 -41.8 L -18.7 -41.8 Q -20.7 -44.4 -24.7 -44.4 L -24.7 -44.4 L -24.7 -44.4 Q -27.5 -44.4 -30.3 -42.9 L -30.3 -42.9 L -30.3 -42.9 Q -33.1 -41.4 -35.5 -38.6 L -35.5 -38.6 L -35.5 -38.6 Q -35.4 -38.1 -35.4 -37.1 L -35.4 -37.1 L -35.4 -19.1 L -35.4 -19.1 Q -35.4 -16.3 -34.9 -15 L -34.9 -15 L -34.9 -15 Q -34.5 -13.8 -33.3 -13.2 L -33.3 -13.2 L -33.3 -13.2 Q -32.1 -12.7 -29.6 -12.7 L -29.6 -12.7 L -29.6 -12.7 Q -29.3 -12.7 -29.3 -12.2 L -29.3 -12.2 L -29.3 -12.2 Q -29.3 -11.6 -29.6 -11.6 L -29.6 -11.6 L -29.6 -11.6 Q -31.7 -11.6 -33 -11.7 L -33 -11.7 L -38 -11.8 L -43 -11.7 L -43 -11.7 Q -44.2 -11.6 -46.3 -11.6 L -46.3 -11.6 L -46.3 -11.6 Q -46.6 -11.6 -46.6 -12.2 L -46.6 -12.2 L -46.6 -12.2 Q -46.6 -12.7 -46.3 -12.7 L -46.3 -12.7 L -46.3 -12.7 Q -43.9 -12.7 -42.7 -13.2 L -42.7 -13.2 L -42.7 -13.2 Q -41.5 -13.8 -41.1 -15 L -41.1 -15 L -41.1 -15 Q -40.6 -16.3 -40.6 -19.1 L -40.6 -19.1 L -40.6 -33.7 L -40.6 -33.7 Q -40.6 -39.1 -42.6 -41.8 L -42.6 -41.8 L -42.6 -41.8 Q -44.5 -44.4 -48.5 -44.4 L -48.5 -44.4 L -48.5 -44.4 Q -51.2 -44.4 -54 -42.9 L -54 -42.9 L -54 -42.9 Q -56.7 -41.4 -59 -38.8 L -59 -38.8 L -59 -19.1 L -59 -19.1 Q -59 -16.3 -58.6 -15 L -58.6 -15 L -58.6 -15 Q -58.2 -13.8 -57 -13.2 L -57 -13.2 L -57 -13.2 Q -55.8 -12.7 -53.3 -12.7 L -53.3 -12.7 L -53.3 -12.7 Q -53.1 -12.7 -53.1 -12.2 L -53.1 -12.2 L -53.1 -12.2 Q -53.1 -11.6 -53.3 -11.6 L -53.3 -11.6 L -53.3 -11.6 Q -55.5 -11.6 -56.7 -11.7 L -56.7 -11.7 L -61.6 -11.8 L -66.7 -11.7 L -66.7 -11.7 Q -67.9 -11.6 -70 -11.6 L -70 -11.6 L -70 -11.6 Q -70.3 -11.6 -70.3 -12.2 L -70.3 -12.2 L -70.3 -12.2 Q -70.3 -12.7 -70 -12.7 L -70 -12.7 L -70 -12.7 Q -67.5 -12.7 -66.3 -13.2 L -66.3 -13.2 L -66.3 -13.2 Q -65.1 -13.8 -64.7 -15 L -64.7 -15 L -64.7 -15 Q -64.3 -16.3 -64.3 -19.1 L -64.3 -19.1 L -64.3 -37.3 L -64.3 -37.3 Q -64.3 -40.4 -65 -41.8 L -65 -41.8 L -65 -41.8 Q -65.8 -43.2 -67.5 -43.2 L -67.5 -43.2 L -67.5 -43.2 Q -69 -43.2 -72.5 -41.8 L -72.5 -41.8 L -72.7 -41.8 L -72.7 -41.8 Q -73 -41.8 -73.2 -42.2 L -73.2 -42.2 L -73.2 -42.2 Q -73.3 -42.6 -72.9 -42.8 L -72.9 -42.8 L -62.3 -47.9 L -62.3 -47.9 Q -62.1 -48 -61.7 -48 L -61.7 -48 L -61.7 -48 Q -60.9 -48 -60 -45.9 L -60 -45.9 L -60 -45.9 Q -59 -43.7 -59 -40.4 L -59 -40.4 L -59 -40.3 L -59 -40.3 Q -55.7 -44.4 -52.4 -46.2 L -52.4 -46.2 L -52.4 -46.2 Q -49.1 -48.1 -45.5 -48.1 L -45.5 -48.1 L -45.5 -48.1 Q -41.4 -48.1 -38.8 -46 L -38.8 -46 L -38.8 -46 Q -36.2 -44 -35.6 -40 L -35.6 -40 L -35.6 -40 Q -32.2 -44.1 -28.8 -46.1 L -28.8 -46.1 L -28.8 -46.1 Q -25.4 -48.1 -21.7 -48.1 L -21.7 -48.1 L -21.7 -48.1 Q -16.8 -48.1 -14.2 -45.3 L -14.2 -45.3 L -14.2 -45.3 Q -11.6 -42.5 -11.6 -36.9 L -11.6 -36.9 L -11.6 -19.1 L -11.6 -19.1 Q -11.6 -16.3 -11.2 -15 L -11.2 -15 L -11.2 -15 Q -10.7 -13.8 -9.5 -13.2 L -9.5 -13.2 L -9.5 -13.2 Q -8.4 -12.7 -5.9 -12.7 L -5.9 -12.7 Z M 34.1 -16.6 L 34.2 -16.6 L 34.2 -16.6 Q 34.6 -16.6 34.7 -16.2 L 34.7 -16.2 L 34.7 -16.2 Q 34.8 -15.8 34.4 -15.6 L 34.4 -15.6 L 25 -11.1 L 25 -11.1 Q 24.6 -10.9 24.2 -10.9 L 24.2 -10.9 L 24.2 -10.9 Q 23 -10.9 22.1 -12.5 L 22.1 -12.5 L 22.1 -12.5 Q 21.2 -14 20.9 -16.8 L 20.9 -16.8 L 15.2 -13.8 L 15.2 -13.8 Q 12.3 -12.3 10.5 -11.6 L 10.5 -11.6 L 10.5 -11.6 Q 8.7 -11 6.9 -11 L 6.9 -11 L 6.9 -11 Q 4.1 -11 2.6 -12.5 L 2.6 -12.5 L 2.6 -12.5 Q 1 -14 1 -16.3 L 1 -16.3 L 1 -16.3 Q 1 -18.8 2.9 -20.3 L 2.9 -20.3 L 2.9 -20.3 Q 4.8 -21.8 9.7 -23.5 L 9.7 -23.5 L 20.8 -27.5 L 20.8 -35.1 L 20.8 -35.1 Q 20.8 -41.2 19.2 -43.6 L 19.2 -43.6 L 19.2 -43.6 Q 17.7 -46 14.9 -46 L 14.9 -46 L 14.9 -46 Q 11.8 -46 10 -43.8 L 10 -43.8 L 10 -43.8 Q 8.3 -41.6 7.9 -38.5 L 7.9 -38.5 L 7.9 -38.5 Q 7.6 -35 4.5 -35 L 4.5 -35 L 4.5 -35 Q 3.1 -35 2.2 -35.7 L 2.2 -35.7 L 2.2 -35.7 Q 1.4 -36.5 1.4 -37.8 L 1.4 -37.8 L 1.4 -37.8 Q 1.4 -39.9 4.2 -42.3 L 4.2 -42.3 L 4.2 -42.3 Q 6.9 -44.7 10.8 -46.3 L 10.8 -46.3 L 10.8 -46.3 Q 14.7 -48 17.9 -48 L 17.9 -48 L 17.9 -48 Q 21.5 -48 23.8 -45.4 L 23.8 -45.4 L 23.8 -45.4 Q 26 -42.9 26 -37.9 L 26 -37.9 L 26 -21.6 L 26 -21.6 Q 26 -18.4 26.8 -16.9 L 26.8 -16.9 L 26.8 -16.9 Q 27.6 -15.4 29.6 -15.4 L 29.6 -15.4 L 29.6 -15.4 Q 31.3 -15.4 34.1 -16.6 L 34.1 -16.6 Z M 15.2 -15.2 L 20.8 -18.1 L 20.8 -18.6 L 20.8 -26.4 L 11.3 -22.8 L 11.3 -22.8 Q 9.2 -21.9 8.3 -20.9 L 8.3 -20.9 L 8.3 -20.9 Q 7.5 -19.9 7.5 -18.4 L 7.5 -18.4 L 7.5 -18.4 Q 7.5 -16.4 8.6 -15.4 L 8.6 -15.4 L 8.6 -15.4 Q 9.7 -14.3 11.4 -14.3 L 11.4 -14.3 L 11.4 -14.3 Q 13.2 -14.3 15.2 -15.2 L 15.2 -15.2 Z M 55 -14.6 L 56.9 -14.3 L 56.9 -14.3 Q 62.4 -13.5 65.6 -12.6 L 65.6 -12.6 L 65.6 -12.6 Q 68.8 -11.7 71.1 -9.6 L 71.1 -9.6 L 71.1 -9.6 Q 73.4 -7.4 73.4 -3.5 L 73.4 -3.5 L 73.4 -3.5 Q 73.4 0.6 70.3 4.8 L 70.3 4.8 L 70.3 4.8 Q 67.2 9 61.9 11.6 L 61.9 11.6 L 61.9 11.6 Q 56.6 14.3 50.5 14.3 L 50.5 14.3 L 50.5 14.3 Q 44 14.3 40 11.2 L 40 11.2 L 40 11.2 Q 36 8.1 36 3.2 L 36 3.2 L 36 3.2 Q 36 -4.1 46.5 -11.1 L 46.5 -11.1 L 46.5 -11.1 Q 40.2 -12.9 40.2 -17.3 L 40.2 -17.3 L 40.2 -17.3 Q 40.2 -19.9 42 -22.4 L 42 -22.4 L 42 -22.4 Q 43.8 -24.8 46.8 -26.8 L 46.8 -26.8 L 46.8 -26.8 Q 43.3 -28.1 41.3 -30.8 L 41.3 -30.8 L 41.3 -30.8 Q 39.4 -33.5 39.4 -36.9 L 39.4 -36.9 L 39.4 -36.9 Q 39.4 -41.7 43.4 -44.8 L 43.4 -44.8 L 43.4 -44.8 Q 47.5 -47.8 53.7 -47.8 L 53.7 -47.8 L 53.7 -47.8 Q 59.7 -47.8 63 -44.9 L 63 -44.9 L 63 -44.9 Q 67.9 -47.9 72.9 -47.9 L 72.9 -47.9 L 72.9 -47.9 Q 73.2 -47.9 73.3 -47.2 L 73.3 -47.2 L 73.3 -47.2 Q 73.4 -46.6 73.4 -45.9 L 73.4 -45.9 L 73.4 -45.9 Q 73.4 -44.8 73.2 -43.7 L 73.2 -43.7 L 73.2 -43.7 Q 72.9 -42.5 72.5 -42.7 L 72.5 -42.7 L 72.5 -42.7 Q 72.2 -42.8 70.5 -43.5 L 70.5 -43.5 L 70.5 -43.5 Q 68.8 -44.1 66.4 -44.1 L 66.4 -44.1 L 66.4 -44.1 Q 65.4 -44.1 64.1 -43.9 L 64.1 -43.9 L 64.1 -43.9 Q 66.5 -41.2 66.5 -37.4 L 66.5 -37.4 L 66.5 -37.4 Q 66.5 -34.3 64.8 -31.6 L 64.8 -31.6 L 64.8 -31.6 Q 63 -29 59.9 -27.5 L 59.9 -27.5 L 59.9 -27.5 Q 56.8 -25.9 52.6 -25.9 L 52.6 -25.9 L 52.6 -25.9 Q 50 -25.9 48 -26.4 L 48 -26.4 L 48 -26.4 Q 46.4 -25.3 45.5 -23.8 L 45.5 -23.8 L 45.5 -23.8 Q 44.5 -22.3 44.5 -20.6 L 44.5 -20.6 L 44.5 -20.6 Q 44.5 -17.7 47.2 -16.6 L 47.2 -16.6 L 47.2 -16.6 Q 49.8 -15.4 55 -14.6 L 55 -14.6 Z M 51.4 -46.4 L 51.4 -46.4 Q 48.6 -46.4 46.9 -44.6 L 46.9 -44.6 L 46.9 -44.6 Q 45.2 -42.7 45.2 -38.9 L 45.2 -38.9 L 45.2 -38.9 Q 45.2 -33.5 48 -30.4 L 48 -30.4 L 48 -30.4 Q 50.8 -27.2 54.6 -27.2 L 54.6 -27.2 L 54.6 -27.2 Q 57.3 -27.2 59.1 -29.3 L 59.1 -29.3 L 59.1 -29.3 Q 60.8 -31.3 60.8 -35.6 L 60.8 -35.6 L 60.8 -35.6 Q 60.8 -40.3 58 -43.4 L 58 -43.4 L 58 -43.4 Q 55.2 -46.4 51.4 -46.4 L 51.4 -46.4 Z M 54.2 11.5 L 54.2 11.5 Q 58.7 11.5 62 9.9 L 62 9.9 L 62 9.9 Q 65.2 8.2 67 5.5 L 67 5.5 L 67 5.5 Q 68.7 2.8 68.7 -0.3 L 68.7 -0.3 L 68.7 -0.3 Q 68.7 -3.9 66.4 -5.8 L 66.4 -5.8 L 66.4 -5.8 Q 64.1 -7.8 61 -8.5 L 61 -8.5 L 61 -8.5 Q 57.9 -9.2 52.3 -10 L 52.3 -10 L 52.3 -10 Q 49.4 -10.3 48.3 -10.6 L 48.3 -10.6 L 48.3 -10.6 Q 45 -8.5 43.2 -6 L 43.2 -6 L 43.2 -6 Q 41.4 -3.5 41.4 0.2 L 41.4 0.2 L 41.4 0.2 Q 41.4 5.4 44.9 8.5 L 44.9 8.5 L 44.9 8.5 Q 48.3 11.5 54.2 11.5 L 54.2 11.5 Z M 107.8 -16.8 L 107.9 -16.8 L 107.9 -16.8 Q 108.2 -16.8 108.4 -16.5 L 108.4 -16.5 L 108.4 -16.5 Q 108.7 -16.1 108.5 -15.9 L 108.5 -15.9 L 108.5 -15.9 Q 102.2 -10.5 95.1 -10.5 L 95.1 -10.5 L 95.1 -10.5 Q 89.6 -10.5 85.7 -13 L 85.7 -13 L 85.7 -13 Q 81.7 -15.5 79.7 -19.5 L 79.7 -19.5 L 79.7 -19.5 Q 77.8 -23.5 77.8 -28.2 L 77.8 -28.2 L 77.8 -28.2 Q 77.8 -33.7 80.4 -38.2 L 80.4 -38.2 L 80.4 -38.2 Q 83 -42.7 87.5 -45.4 L 87.5 -45.4 L 87.5 -45.4 Q 92 -48 97.5 -48 L 97.5 -48 L 97.5 -48 Q 102.5 -48 105.3 -45.5 L 105.3 -45.5 L 105.3 -45.5 Q 108 -43.1 108 -38.9 L 108 -38.9 L 108 -38.9 Q 108 -37.8 107.8 -37.3 L 107.8 -37.3 L 107.8 -37.3 Q 107.6 -36.8 106.9 -36.8 L 106.9 -36.8 L 84.3 -36.6 L 84.3 -36.6 Q 83.8 -34.1 83.8 -31.8 L 83.8 -31.8 L 83.8 -31.8 Q 83.8 -23.8 87.7 -18.8 L 87.7 -18.8 L 87.7 -18.8 Q 91.6 -13.8 98.4 -13.8 L 98.4 -13.8 L 98.4 -13.8 Q 103.6 -13.8 107.8 -16.8 L 107.8 -16.8 Z M 94.4 -46.1 L 94.4 -46.1 Q 90.6 -46.1 88.1 -44 L 88.1 -44 L 88.1 -44 Q 85.6 -41.8 84.6 -37.9 L 84.6 -37.9 L 101.7 -38.2 L 101.7 -38.2 Q 101.7 -42 99.7 -44.1 L 99.7 -44.1 L 99.7 -44.1 Q 97.7 -46.1 94.4 -46.1 L 94.4 -46.1 Z M 121.2 -41.5 L 121.2 -41.5 Q 121.2 -38.3 123.3 -36.4 L 123.3 -36.4 L 123.3 -36.4 Q 125.4 -34.5 129.6 -32.4 L 129.6 -32.4 L 129.6 -32.4 Q 132.8 -30.8 134.6 -29.6 L 134.6 -29.6 L 134.6 -29.6 Q 136.4 -28.4 137.7 -26.4 L 137.7 -26.4 L 137.7 -26.4 Q 138.9 -24.5 138.9 -21.8 L 138.9 -21.8 L 138.9 -21.8 Q 138.9 -17.1 135.4 -13.8 L 135.4 -13.8 L 135.4 -13.8 Q 131.9 -10.6 126 -10.6 L 126 -10.6 L 126 -10.6 Q 121.1 -10.6 117.1 -13.4 L 117.1 -13.4 L 117.1 -13.4 Q 116.6 -13.8 116.6 -14.5 L 116.6 -14.5 L 116.4 -21.7 L 116.4 -21.7 Q 116.4 -21.9 116.9 -22 L 116.9 -22 L 116.9 -22 Q 117.4 -22 117.5 -21.8 L 117.5 -21.8 L 117.5 -21.8 Q 119.3 -17.2 122.1 -14.8 L 122.1 -14.8 L 122.1 -14.8 Q 124.9 -12.4 128.5 -12.4 L 128.5 -12.4 L 128.5 -12.4 Q 131.4 -12.4 133 -13.7 L 133 -13.7 L 133 -13.7 Q 134.6 -15 134.6 -17.7 L 134.6 -17.7 L 134.6 -17.7 Q 134.6 -20.3 133.5 -22.1 L 133.5 -22.1 L 133.5 -22.1 Q 132.3 -23.9 130.7 -24.9 L 130.7 -24.9 L 130.7 -24.9 Q 129 -26 126.2 -27.5 L 126.2 -27.5 L 126.2 -27.5 Q 123.1 -28.9 121.3 -30.1 L 121.3 -30.1 L 121.3 -30.1 Q 119.5 -31.3 118.3 -33.3 L 118.3 -33.3 L 118.3 -33.3 Q 117 -35.2 117 -38 L 117 -38 L 117 -38 Q 117 -43 120.8 -45.6 L 120.8 -45.6 L 120.8 -45.6 Q 124.5 -48.3 129.6 -48.3 L 129.6 -48.3 L 129.6 -48.3 Q 133.2 -48.3 136.3 -46.9 L 136.3 -46.9 L 136.3 -46.9 Q 136.8 -46.7 137 -46.5 L 137 -46.5 L 137 -46.5 Q 137.1 -46.2 137.1 -45.9 L 137.1 -45.9 L 137.1 -45.9 Q 137.1 -44 137 -43 L 137 -43 L 136.9 -39.1 L 136.9 -39.1 Q 136.9 -39 136.4 -39 L 136.4 -39 L 136.4 -39 Q 135.8 -39 135.8 -39.1 L 135.8 -39.1 L 135.8 -39.1 Q 135.8 -41.1 134.3 -42.8 L 134.3 -42.8 L 134.3 -42.8 Q 132.9 -44.5 130.7 -45.5 L 130.7 -45.5 L 130.7 -45.5 Q 128.5 -46.5 126.2 -46.5 L 126.2 -46.5 L 126.2 -46.5 Q 123.9 -46.5 122.5 -45.3 L 122.5 -45.3 L 122.5 -45.3 Q 121.2 -44 121.2 -41.5 L 121.2 -41.5 Z M 201.9 -10.5 L 201.9 -10.5 Q 191.8 -10.5 184.4 -14.4 L 184.4 -14.4 L 184.4 -14.4 Q 176.9 -18.3 173 -24.9 L 173 -24.9 L 173 -24.9 Q 169.1 -31.5 169.1 -39.7 L 169.1 -39.7 L 169.1 -39.7 Q 169.1 -48.6 173.7 -55.5 L 173.7 -55.5 L 173.7 -55.5 Q 178.2 -62.4 186.2 -66.3 L 186.2 -66.3 L 186.2 -66.3 Q 194.1 -70.1 204.2 -70.1 L 204.2 -70.1 L 204.2 -70.1 Q 208.7 -70.1 212.8 -69.3 L 212.8 -69.3 L 212.8 -69.3 Q 216.9 -68.4 219.4 -66.8 L 219.4 -66.8 L 219.4 -66.8 Q 220.2 -66.4 220.3 -66.1 L 220.3 -66.1 L 220.3 -66.1 Q 220.5 -65.7 220.5 -64.7 L 220.5 -64.7 L 221.6 -54.4 L 221.6 -54.4 Q 221.6 -54.1 221.1 -54.1 L 221.1 -54.1 L 221.1 -54.1 Q 220.6 -54 220.5 -54.3 L 220.5 -54.3 L 220.5 -54.3 Q 218.5 -60.9 213.2 -64.5 L 213.2 -64.5 L 213.2 -64.5 Q 207.9 -68.1 200.2 -68.1 L 200.2 -68.1 L 200.2 -68.1 Q 188.6 -68.1 182.3 -61.4 L 182.3 -61.4 L 182.3 -61.4 Q 175.9 -54.7 175.9 -43 L 175.9 -43 L 175.9 -43 Q 175.9 -34.1 179.6 -27 L 179.6 -27 L 179.6 -27 Q 183.2 -20 189.6 -16.1 L 189.6 -16.1 L 189.6 -16.1 Q 196.1 -12.1 204.1 -12.1 L 204.1 -12.1 L 204.1 -12.1 Q 208.8 -12.1 211.3 -12.9 L 211.3 -12.9 L 211.3 -12.9 Q 213.9 -13.8 215.1 -16.1 L 215.1 -16.1 L 215.1 -16.1 Q 216.3 -18.5 216.3 -23.2 L 216.3 -23.2 L 216.3 -23.2 Q 216.3 -28 215.7 -29.9 L 215.7 -29.9 L 215.7 -29.9 Q 215.1 -31.8 213 -32.4 L 213 -32.4 L 213 -32.4 Q 211 -33.1 205.9 -33.1 L 205.9 -33.1 L 205.9 -33.1 Q 205.4 -33.1 205.4 -33.8 L 205.4 -33.8 L 205.4 -33.8 Q 205.4 -34.1 205.5 -34.3 L 205.5 -34.3 L 205.5 -34.3 Q 205.6 -34.5 205.8 -34.5 L 205.8 -34.5 L 205.8 -34.5 Q 213 -34.1 217.4 -34.1 L 217.4 -34.1 L 217.4 -34.1 Q 221.7 -34.1 226.4 -34.4 L 226.4 -34.4 L 226.4 -34.4 Q 226.6 -34.4 226.8 -34.1 L 226.8 -34.1 L 226.8 -34.1 Q 226.9 -33.9 226.9 -33.7 L 226.9 -33.7 L 226.9 -33.7 Q 226.9 -33.1 226.4 -33.1 L 226.4 -33.1 L 226.4 -33.1 Q 224.2 -33.2 223.3 -32.5 L 223.3 -32.5 L 223.3 -32.5 Q 222.4 -31.8 222.1 -29.7 L 222.1 -29.7 L 222.1 -29.7 Q 221.8 -27.6 221.8 -22.3 L 221.8 -22.3 L 221.8 -22.3 Q 221.8 -18.2 222.2 -16.4 L 222.2 -16.4 L 222.2 -16.4 Q 222.5 -14.7 222.5 -14.2 L 222.5 -14.2 L 222.5 -14.2 Q 222.5 -13.7 222.3 -13.5 L 222.3 -13.5 L 222.3 -13.5 Q 222.1 -13.3 221.5 -13.1 L 221.5 -13.1 L 221.5 -13.1 Q 210.3 -10.5 201.9 -10.5 L 201.9 -10.5 Z M 268.3 -16.6 L 268.5 -16.6 L 268.5 -16.6 Q 268.8 -16.6 268.9 -16.2 L 268.9 -16.2 L 268.9 -16.2 Q 269 -15.8 268.7 -15.6 L 268.7 -15.6 L 259.2 -11.1 L 259.2 -11.1 Q 258.8 -10.9 258.4 -10.9 L 258.4 -10.9 L 258.4 -10.9 Q 257.3 -10.9 256.3 -12.5 L 256.3 -12.5 L 256.3 -12.5 Q 255.4 -14 255.1 -16.8 L 255.1 -16.8 L 249.4 -13.8 L 249.4 -13.8 Q 246.6 -12.3 244.7 -11.6 L 244.7 -11.6 L 244.7 -11.6 Q 242.9 -11 241.2 -11 L 241.2 -11 L 241.2 -11 Q 238.3 -11 236.8 -12.5 L 236.8 -12.5 L 236.8 -12.5 Q 235.3 -14 235.3 -16.3 L 235.3 -16.3 L 235.3 -16.3 Q 235.3 -18.8 237.2 -20.3 L 237.2 -20.3 L 237.2 -20.3 Q 239 -21.8 243.9 -23.5 L 243.9 -23.5 L 255 -27.5 L 255 -35.1 L 255 -35.1 Q 255 -41.2 253.5 -43.6 L 253.5 -43.6 L 253.5 -43.6 Q 251.9 -46 249.2 -46 L 249.2 -46 L 249.2 -46 Q 246 -46 244.3 -43.8 L 244.3 -43.8 L 244.3 -43.8 Q 242.5 -41.6 242.2 -38.5 L 242.2 -38.5 L 242.2 -38.5 Q 241.8 -35 238.8 -35 L 238.8 -35 L 238.8 -35 Q 237.3 -35 236.5 -35.7 L 236.5 -35.7 L 236.5 -35.7 Q 235.6 -36.5 235.6 -37.8 L 235.6 -37.8 L 235.6 -37.8 Q 235.6 -39.9 238.4 -42.3 L 238.4 -42.3 L 238.4 -42.3 Q 241.2 -44.7 245.1 -46.3 L 245.1 -46.3 L 245.1 -46.3 Q 249 -48 252.1 -48 L 252.1 -48 L 252.1 -48 Q 255.8 -48 258 -45.4 L 258 -45.4 L 258 -45.4 Q 260.2 -42.9 260.2 -37.9 L 260.2 -37.9 L 260.2 -21.6 L 260.2 -21.6 Q 260.2 -18.4 261 -16.9 L 261 -16.9 L 261 -16.9 Q 261.9 -15.4 263.8 -15.4 L 263.8 -15.4 L 263.8 -15.4 Q 265.5 -15.4 268.3 -16.6 L 268.3 -16.6 Z M 249.4 -15.2 L 255 -18.1 L 255 -18.6 L 255 -26.4 L 245.6 -22.8 L 245.6 -22.8 Q 243.5 -21.9 242.6 -20.9 L 242.6 -20.9 L 242.6 -20.9 Q 241.7 -19.9 241.7 -18.4 L 241.7 -18.4 L 241.7 -18.4 Q 241.7 -16.4 242.8 -15.4 L 242.8 -15.4 L 242.8 -15.4 Q 243.9 -14.3 245.7 -14.3 L 245.7 -14.3 L 245.7 -14.3 Q 247.4 -14.3 249.4 -15.2 L 249.4 -15.2 Z M 272.5 -11.6 L 272.5 -11.6 Q 272.2 -11.6 272.2 -12.2 L 272.2 -12.2 L 272.2 -12.2 Q 272.2 -12.7 272.5 -12.7 L 272.5 -12.7 L 272.5 -12.7 Q 275 -12.7 276.2 -13.2 L 276.2 -13.2 L 276.2 -13.2 Q 277.4 -13.8 277.9 -15.1 L 277.9 -15.1 L 277.9 -15.1 Q 278.3 -16.4 278.3 -19.1 L 278.3 -19.1 L 278.3 -66.7 L 278.3 -66.7 Q 278.3 -70 277.7 -71.4 L 277.7 -71.4 L 277.7 -71.4 Q 277 -72.9 275.4 -72.9 L 275.4 -72.9 L 275.4 -72.9 Q 274 -72.9 271.1 -71.6 L 271.1 -71.6 L 271 -71.6 L 271 -71.6 Q 270.7 -71.6 270.5 -72.1 L 270.5 -72.1 L 270.5 -72.1 Q 270.4 -72.5 270.7 -72.6 L 270.7 -72.6 L 282.5 -78.2 L 282.5 -78.2 Q 282.6 -78.3 282.9 -78.3 L 282.9 -78.3 L 282.9 -78.3 Q 283.1 -78.3 283.4 -78.1 L 283.4 -78.1 L 283.4 -78.1 Q 283.7 -77.9 283.7 -77.6 L 283.7 -77.6 L 283.7 -19.1 L 283.7 -19.1 Q 283.7 -16.4 284.2 -15.1 L 284.2 -15.1 L 284.2 -15.1 Q 284.6 -13.8 285.8 -13.3 L 285.8 -13.3 L 285.8 -13.3 Q 287 -12.7 289.5 -12.7 L 289.5 -12.7 L 289.5 -12.7 Q 289.7 -12.7 289.7 -12.2 L 289.7 -12.2 L 289.7 -12.2 Q 289.7 -11.6 289.5 -11.6 L 289.5 -11.6 L 289.5 -11.6 Q 287.4 -11.6 286.1 -11.7 L 286.1 -11.7 L 281 -11.8 L 276 -11.7 L 276 -11.7 Q 274.7 -11.6 272.5 -11.6 L 272.5 -11.6 Z M 296.3 -11.6 L 296.3 -11.6 Q 296 -11.6 296 -12.2 L 296 -12.2 L 296 -12.2 Q 296 -12.7 296.3 -12.7 L 296.3 -12.7 L 296.3 -12.7 Q 298.7 -12.7 299.9 -13.2 L 299.9 -13.2 L 299.9 -13.2 Q 301.1 -13.8 301.6 -15.1 L 301.6 -15.1 L 301.6 -15.1 Q 302.1 -16.4 302.1 -19.1 L 302.1 -19.1 L 302.1 -66.7 L 302.1 -66.7 Q 302.1 -70 301.4 -71.4 L 301.4 -71.4 L 301.4 -71.4 Q 300.8 -72.9 299.1 -72.9 L 299.1 -72.9 L 299.1 -72.9 Q 297.7 -72.9 294.9 -71.6 L 294.9 -71.6 L 294.7 -71.6 L 294.7 -71.6 Q 294.4 -71.6 294.3 -72.1 L 294.3 -72.1 L 294.3 -72.1 Q 294.1 -72.5 294.4 -72.6 L 294.4 -72.6 L 306.2 -78.2 L 306.2 -78.2 Q 306.4 -78.3 306.7 -78.3 L 306.7 -78.3 L 306.7 -78.3 Q 306.8 -78.3 307.2 -78.1 L 307.2 -78.1 L 307.2 -78.1 Q 307.5 -77.9 307.5 -77.6 L 307.5 -77.6 L 307.5 -19.1 L 307.5 -19.1 Q 307.5 -16.4 307.9 -15.1 L 307.9 -15.1 L 307.9 -15.1 Q 308.3 -13.8 309.5 -13.3 L 309.5 -13.3 L 309.5 -13.3 Q 310.7 -12.7 313.2 -12.7 L 313.2 -12.7 L 313.2 -12.7 Q 313.5 -12.7 313.5 -12.2 L 313.5 -12.2 L 313.5 -12.2 Q 313.5 -11.6 313.2 -11.6 L 313.2 -11.6 L 313.2 -11.6 Q 311.2 -11.6 309.9 -11.7 L 309.9 -11.7 L 304.7 -11.8 L 299.8 -11.7 L 299.8 -11.7 Q 298.5 -11.6 296.3 -11.6 L 296.3 -11.6 Z M 349.7 -16.8 L 349.8 -16.8 L 349.8 -16.8 Q 350.1 -16.8 350.3 -16.5 L 350.3 -16.5 L 350.3 -16.5 Q 350.5 -16.1 350.4 -15.9 L 350.4 -15.9 L 350.4 -15.9 Q 344.1 -10.5 336.9 -10.5 L 336.9 -10.5 L 336.9 -10.5 Q 331.5 -10.5 327.5 -13 L 327.5 -13 L 327.5 -13 Q 323.6 -15.5 321.6 -19.5 L 321.6 -19.5 L 321.6 -19.5 Q 319.6 -23.5 319.6 -28.2 L 319.6 -28.2 L 319.6 -28.2 Q 319.6 -33.7 322.3 -38.2 L 322.3 -38.2 L 322.3 -38.2 Q 324.9 -42.7 329.4 -45.4 L 329.4 -45.4 L 329.4 -45.4 Q 333.9 -48 339.4 -48 L 339.4 -48 L 339.4 -48 Q 344.4 -48 347.1 -45.5 L 347.1 -45.5 L 347.1 -45.5 Q 349.9 -43.1 349.9 -38.9 L 349.9 -38.9 L 349.9 -38.9 Q 349.9 -37.8 349.7 -37.3 L 349.7 -37.3 L 349.7 -37.3 Q 349.4 -36.8 348.8 -36.8 L 348.8 -36.8 L 326.2 -36.6 L 326.2 -36.6 Q 325.7 -34.1 325.7 -31.8 L 325.7 -31.8 L 325.7 -31.8 Q 325.7 -23.8 329.6 -18.8 L 329.6 -18.8 L 329.6 -18.8 Q 333.4 -13.8 340.2 -13.8 L 340.2 -13.8 L 340.2 -13.8 Q 345.5 -13.8 349.7 -16.8 L 349.7 -16.8 Z M 336.3 -46.1 L 336.3 -46.1 Q 332.5 -46.1 330 -44 L 330 -44 L 330 -44 Q 327.4 -41.8 326.4 -37.9 L 326.4 -37.9 L 343.5 -38.2 L 343.5 -38.2 Q 343.5 -42 341.6 -44.1 L 341.6 -44.1 L 341.6 -44.1 Q 339.6 -46.1 336.3 -46.1 L 336.3 -46.1 Z M 379.2 -48 L 379.2 -48 Q 381.2 -48 383 -46.9 L 383 -46.9 L 383 -46.9 Q 384.9 -45.8 384.9 -44.2 L 384.9 -44.2 L 384.9 -44.2 Q 384.9 -43 384.1 -42.2 L 384.1 -42.2 L 384.1 -42.2 Q 383.3 -41.4 381.8 -41.4 L 381.8 -41.4 L 381.8 -41.4 Q 381 -41.4 380.4 -41.7 L 380.4 -41.7 L 380.4 -41.7 Q 379.8 -42 379 -42.6 L 379 -42.6 L 379 -42.6 Q 378.1 -43.4 377.4 -43.7 L 377.4 -43.7 L 377.4 -43.7 Q 376.7 -44.1 375.7 -44.1 L 375.7 -44.1 L 375.7 -44.1 Q 374.5 -44.1 373.1 -43.1 L 373.1 -43.1 L 373.1 -43.1 Q 371.8 -42.2 368.9 -38.9 L 368.9 -38.9 L 368.9 -19.1 L 368.9 -19.1 Q 368.9 -16.3 369.6 -15 L 369.6 -15 L 369.6 -15 Q 370.3 -13.8 372.2 -13.2 L 372.2 -13.2 L 372.2 -13.2 Q 374 -12.7 377.9 -12.7 L 377.9 -12.7 L 377.9 -12.7 Q 378.2 -12.7 378.2 -12.2 L 378.2 -12.2 L 378.2 -12.2 Q 378.2 -11.6 377.9 -11.6 L 377.9 -11.6 L 377.9 -11.6 Q 374.9 -11.6 373.2 -11.7 L 373.2 -11.7 L 366.4 -11.8 L 361.3 -11.7 L 361.3 -11.7 Q 360.1 -11.6 358 -11.6 L 358 -11.6 L 358 -11.6 Q 357.7 -11.6 357.7 -12.2 L 357.7 -12.2 L 357.7 -12.2 Q 357.7 -12.7 358 -12.7 L 358 -12.7 L 358 -12.7 Q 360.5 -12.7 361.7 -13.2 L 361.7 -13.2 L 361.7 -13.2 Q 362.9 -13.8 363.3 -15 L 363.3 -15 L 363.3 -15 Q 363.7 -16.3 363.7 -19.1 L 363.7 -19.1 L 363.7 -37.3 L 363.7 -37.3 Q 363.7 -40.4 363 -41.8 L 363 -41.8 L 363 -41.8 Q 362.2 -43.2 360.5 -43.2 L 360.5 -43.2 L 360.5 -43.2 Q 359 -43.2 355.5 -41.8 L 355.5 -41.8 L 355.3 -41.8 L 355.3 -41.8 Q 355 -41.8 354.8 -42.2 L 354.8 -42.2 L 354.8 -42.2 Q 354.7 -42.6 355 -42.8 L 355 -42.8 L 365.7 -47.9 L 365.7 -47.9 Q 365.9 -48 366.3 -48 L 366.3 -48 L 366.3 -48 Q 367.1 -48 368 -45.9 L 368 -45.9 L 368 -45.9 Q 368.9 -43.7 368.9 -40.4 L 368.9 -40.4 L 368.9 -40.3 L 368.9 -40.3 Q 372.7 -44.8 374.9 -46.4 L 374.9 -46.4 L 374.9 -46.4 Q 377.1 -48 379.2 -48 L 379.2 -48 Z M 427 -47.1 L 427 -47.1 Q 427.3 -47.1 427.3 -46.6 L 427.3 -46.6 L 427.3 -46.6 Q 427.3 -46 427 -46 L 427 -46 L 427 -46 Q 424.7 -46 423 -44.4 L 423 -44.4 L 423 -44.4 Q 421.4 -42.7 419.9 -39 L 419.9 -39 L 408.7 -9.1 L 408.7 -9.1 Q 405.3 -0.1 402.3 4.9 L 402.3 4.9 L 402.3 4.9 Q 399.3 9.9 396.1 12.1 L 396.1 12.1 L 396.1 12.1 Q 393 14.2 388.8 14.2 L 388.8 14.2 L 388.8 14.2 Q 386.8 14.2 385.5 13.3 L 385.5 13.3 L 385.5 13.3 Q 384.1 12.4 384.1 10.6 L 384.1 10.6 L 384.1 10.6 Q 384.1 9.3 384.9 8.6 L 384.9 8.6 L 384.9 8.6 Q 385.8 7.9 387 7.9 L 387 7.9 L 387 7.9 Q 388.2 7.9 389 8.1 L 389 8.1 L 389 8.1 Q 389.8 8.4 390.7 9.1 L 390.7 9.1 L 390.7 9.1 Q 390.9 9.2 391.8 9.6 L 391.8 9.6 L 391.8 9.6 Q 392.7 10.1 394 10.1 L 394 10.1 L 394 10.1 Q 396.2 10.1 398.2 8.1 L 398.2 8.1 L 398.2 8.1 Q 400.1 6.2 402.4 1.7 L 402.4 1.7 L 402.4 1.7 Q 404.6 -2.9 407.7 -10.9 L 407.7 -10.9 L 393.7 -39.5 L 393.7 -39.5 Q 391.6 -43.6 390.5 -44.8 L 390.5 -44.8 L 390.5 -44.8 Q 389.4 -46 387.6 -46 L 387.6 -46 L 387.6 -46 Q 387.4 -46 387.4 -46.6 L 387.4 -46.6 L 387.4 -46.6 Q 387.4 -47.1 387.6 -47.1 L 387.6 -47.1 L 390.7 -47.1 L 390.7 -47.1 Q 391.8 -47 393.8 -47 L 393.8 -47 L 399.7 -47.1 L 399.7 -47.1 Q 401 -47.1 403.3 -47.1 L 403.3 -47.1 L 403.3 -47.1 Q 403.4 -47.1 403.4 -46.6 L 403.4 -46.6 L 403.4 -46.6 Q 403.4 -46 403.3 -46 L 403.3 -46 L 403.3 -46 Q 397.9 -46 397.9 -43.9 L 397.9 -43.9 L 397.9 -43.9 Q 397.9 -43.4 398.4 -42.5 L 398.4 -42.5 L 410.5 -17.5 L 417.9 -38.7 L 417.9 -38.7 Q 418.6 -40.9 418.6 -42.2 L 418.6 -42.2 L 418.6 -42.2 Q 418.6 -44.3 417 -45.2 L 417 -45.2 L 417 -45.2 Q 415.3 -46 411.5 -46 L 411.5 -46 L 411.5 -46 Q 411.4 -46 411.4 -46.6 L 411.4 -46.6 L 411.4 -46.6 Q 411.4 -47.1 411.5 -47.1 L 411.5 -47.1 L 411.5 -47.1 Q 414 -47.1 415.3 -47.1 L 415.3 -47.1 L 420.8 -47 L 424.1 -47.1 L 424.1 -47.1 Q 425.1 -47.1 427 -47.1 L 427 -47.1 Z" fill="url(#editing-rainbow-gradient)"></path></g></g><style>text {
  font-size: 64px;
  font-family: Arial Black;
  dominant-baseline: central;
  text-anchor: middle;
}</style></svg>